<?xml version="1.0" encoding="UTF-8" standalone="no"?>
<svg width="128px" height="128px" viewBox="0 0 128 128" version="1.1" xmlns="http://www.w3.org/2000/svg" xmlns:xlink="http://www.w3.org/1999/xlink">
    <!-- Generator: Sketch 3.8.3 (29802) - http://www.bohemiancoding.com/sketch -->
    <title>people-finder-app-icon</title>
    <desc>Created with Sketch.</desc>
    <defs></defs>
    <g id="Final" stroke="none" stroke-width="1" fill="none" fill-rule="evenodd">
        <g id="people-finder-app-icon" stroke="#000000" stroke-width="4">
            <rect id="Rectangle-114" x="14" y="40" width="100" height="66" rx="4"></rect>
            <circle id="Oval-66" cx="64" cy="31" r="2"></circle>
            <path d="M35.5,95 L35.5,91 M46.5,95 L46.5,91 M28,95 L28,90.7183099 C28,83.4374856 33.8202983,79 41,79 C48.1797017,79 54,83.4374856 54,90.7183099 L54,95 M41,79 C45.418278,79 49,75.418278 49,71 C49,66.581722 45.418278,63 41,63 C36.581722,63 33,66.581722 33,71 C33,75.418278 36.581722,79 41,79 Z" id="User"></path>
            <path d="M64,83 L79,83" id="Path"></path>
            <path d="M64,74 L88,74" id="Path"></path>
            <path d="M64,93 L93,93" id="Path"></path>
            <path d="M64,63 L100,63" id="Path"></path>
            <path d="M73,22 L73,46.0029953 C73,47.1059106 72.1073772,48 71.0049107,48 L56.9950893,48 C55.8932319,48 55,47.1050211 55,46.0029953 L55,22 L73,22 Z" id="Rectangle-115"></path>
        </g>
    </g>
</svg>